<?xml version="1.0" standalone="no"?><!DOCTYPE svg PUBLIC "-//W3C//DTD SVG 1.1//EN" "http://www.w3.org/Graphics/SVG/1.1/DTD/svg11.dtd"><svg t="1485868299160" class="icon" style="" viewBox="0 0 1024 1024" version="1.1" xmlns="http://www.w3.org/2000/svg" p-id="1436" xmlns:xlink="http://www.w3.org/1999/xlink" width="32" height="32"><defs><style type="text/css"></style></defs><path d="M518.367232 693.026816c-8.777728 0-16.023552-7.032832-16.201728-15.86176l-0.223232-10.317824c0.178176-4.818944 0.083968-34.269184-52.84864-44.087296-39.493632-5.31456-62.756864-15.839232-68.632576-31.197184-2.760704-6.055936-2.760704-14.565376-1.726464-26.396672 2.899968-32.964608 20.271104-52.662272 31.809536-65.714176 2.80576-3.19488 5.38624-6.043648 7.282688-8.777728 4.708352-6.854656 6.516736-14.823424 7.104512-18.802688-4.388864-5.679104-7.008256-11.876352-5.74464-20.67456 0.722944-4.77184 1.31072-9.551872 1.533952-14.3872 0.72704-12.488704 0.362496-22.122496-1.08544-30.404608-0.313344-2.37568-0.677888-3.934208-1.079296-5.449728-1.449984-5.474304-3.713024-10.156032-6.651904-13.664256l0 0c-0.094208 0-18.776064-17.876992-71.348224-21.874688-5.296128-0.382976-10.637312-0.33792-16.150528-0.178176-0.141312 1.009664-0.362496 2.074624-0.684032 3.168256-0.401408 1.335296-2.351104 5.380096-3.080192 6.582272-3.342336 5.31456-7.550976 9.187328-10.9056 11.964416-2.11968 1.941504-9.269248 9.979904-9.537536 17.217536-2.215936 13.729792-2.082816 33.386496 0.090112 45.174784 0.907264 4.77184 2.848768 15.0016-5.476352 23.707648 0.729088 3.8912 2.582528 11.24352 7.010304 17.672192 1.857536 2.691072 4.438016 5.545984 7.288832 8.726528 11.485184 13.058048 28.862464 32.761856 31.809536 65.701888 0.989184 11.825152 0.989184 20.353024-1.769472 26.39872-5.834752 15.357952-29.1328 25.899008-69.35552 31.32416-53.755904 9.347072-51.761152 41.58464-51.761152 41.904128 0.722944 8.931328-5.92896 16.756736-14.839808 17.461248-9.633792 0.768-16.78336-5.955584-17.461248-14.839808-1.718272-21.428224 12.580864-64.99328 79.130624-76.556288 18.501632-2.52928 38.320128-8.005632 44.201984-12.01152 0.045056-1.69984 0.045056-5.001216-0.452608-10.860544-1.992704-22.278144-13.621248-35.444736-23.842816-47.0528-3.756032-4.2496-7.104512-8.12032-9.588736-11.743232-11.812864-17.076224-13.123584-35.969024-13.217792-38.043648 0-8.554496 3.211264-13.871104 6.248448-17.32608-2.715648-17.332224-2.670592-38.619136-0.180224-52.963328 0.54272-20.271104 18.546688-36.714496 20.629504-38.504448 0.497664-0.428032 1.353728-1.124352 2.172928-1.916928-0.768-2.809856-1.220608-6.248448-0.454656-10.227712 1.98656-10.471424 10.446848-16.22016 25.114624-17.012736 9.447424-0.473088 18.456576-0.74752 27.502592-0.114688 66.736128 5.117952 90.898432 30.173184 93.427712 33.00352 6.330368 7.559168 10.77248 16.42496 13.533184 26.73664 0.768 3.106816 1.398784 5.971968 1.763328 8.84736 1.763328 9.95328 2.209792 21.938176 1.398784 36.876288-0.268288 4.92544-0.765952 9.838592-1.449984 14.790656 1.814528 2.179072 3.622912 4.886528 4.796416 8.554496 0.499712 1.558528 1.175552 6.764544 1.175552 8.413184-0.090112 2.926592-1.398784 21.8112-13.160448 38.842368-2.537472 3.66592-5.883904 7.532544-9.639936 11.767808-10.221568 11.60192-21.8112 24.762368-23.79776 47.116288-0.587776 6.766592-0.54272 10.15808-0.454656 11.511808 0.231424 0.524288 0.364544 1.048576 0.499712 1.585152 2.627584 0.95232 23.939072 7.0144 43.116544 9.639936 67.823616 12.55424 81.985536 55.965696 80.082944 77.18912l0.274432 8.503296c0.223232 8.955904-6.88128 16.379904-15.843328 16.584704L518.367232 693.030912 518.367232 693.026816 518.367232 693.026816zM518.367232 693.026816" p-id="1437" fill="#8a8a8a"></path><path d="M851.492864 407.037952 601.657344 407.037952c-8.957952 0-16.203776-7.262208-16.203776-16.22016 0-8.955904 7.23968-16.22016 16.203776-16.22016l249.837568 0c8.955904 0 16.201728 7.264256 16.201728 16.22016C867.694592 399.773696 860.45696 407.037952 851.492864 407.037952L851.492864 407.037952 851.492864 407.037952zM851.492864 407.037952" p-id="1438" fill="#8a8a8a"></path><path d="M851.492864 544.28672 601.657344 544.28672c-8.957952 0-16.203776-7.264256-16.203776-16.22016 0-8.962048 7.23968-16.22016 16.203776-16.22016l249.837568 0c8.955904 0 16.201728 7.258112 16.201728 16.22016C867.694592 537.022464 860.45696 544.28672 851.492864 544.28672L851.492864 544.28672 851.492864 544.28672zM851.492864 544.28672" p-id="1439" fill="#8a8a8a"></path><path d="M851.492864 677.298176 601.657344 677.298176c-8.957952 0-16.203776-7.256064-16.203776-16.214016 0-8.962048 7.23968-16.228352 16.203776-16.228352l249.837568 0c8.955904 0 16.201728 7.264256 16.201728 16.228352C867.694592 670.042112 860.45696 677.298176 851.492864 677.298176L851.492864 677.298176 851.492864 677.298176zM851.492864 677.298176" p-id="1440" fill="#8a8a8a"></path><path d="M937.22624 153.604096 116.068352 153.604096c-28.342272 0-51.32288 22.980608-51.32288 51.32288l0 615.868416c0 28.342272 22.97856 51.32288 51.32288 51.32288L937.22624 872.118272c28.342272 0 51.32288-22.97856 51.32288-51.32288L988.54912 204.926976C988.547072 176.584704 965.568512 153.604096 937.22624 153.604096zM956.416 835.186688 96.878592 835.186688 96.878592 190.533632 956.416 190.533632 956.416 835.186688z" p-id="1441" fill="#8a8a8a"></path></svg>