<?xml version="1.0" standalone="no"?><!DOCTYPE svg PUBLIC "-//W3C//DTD SVG 1.1//EN" "http://www.w3.org/Graphics/SVG/1.1/DTD/svg11.dtd"><svg t="1485868520696" class="icon" style="" viewBox="0 0 1024 1024" version="1.1" xmlns="http://www.w3.org/2000/svg" p-id="2537" xmlns:xlink="http://www.w3.org/1999/xlink" width="32" height="32"><defs><style type="text/css"></style></defs><path d="M523.889 166.498c-194.255 0-352.277 142.217-352.277 317.057 0 63.414 20.812 124.438 60.291 177.012l-41.92 170.942c-1.598 6.532 0.668 13.452 5.847 17.748 3.212 2.689 7.222 4.059 11.263 4.059 2.455 0 4.926-0.512 7.222-1.541l170.944-76.961c44.258 17.132 90.862 25.799 138.623 25.799 194.255 0 352.283-142.253 352.283-317.060 0-174.838-158.030-317.060-352.283-317.060zM523.889 765.381c-45.738 0-90.272-8.774-132.377-26.039-4.435-1.787-9.491-1.719-13.898 0.274l-144.798 65.19 35.332-144.075c1.291-5.331 0.066-10.909-3.321-15.134-37.924-47.825-57.98-103.856-57.98-162.048 0-155.398 142.234-281.823 317.051-281.823s317.051 126.428 317.051 281.823c0 155.407-142.234 281.834-317.051 281.834zM400.589 395.411c-19.461 0-35.229 15.767-35.229 35.229s15.767 35.229 35.229 35.229c19.451 0 35.226-15.767 35.226-35.229s-15.77-35.229-35.226-35.229zM647.184 395.411c-19.46 0-35.229 15.767-35.229 35.229s15.767 35.229 35.229 35.229 35.229-15.767 35.229-35.229-15.77-35.229-35.229-35.229z" p-id="2538" fill="#8a8a8a"></path></svg>